<?xml version="1.0" encoding="utf-8"?>
<!-- Generator: Adobe Illustrator 21.1.0, SVG Export Plug-In . SVG Version: 6.00 Build 0)  -->
<svg version="1.1" id="Layer_1" xmlns="http://www.w3.org/2000/svg" xmlns:xlink="http://www.w3.org/1999/xlink" x="0px" y="0px"
	 viewBox="0 0 107 53" style="enable-background:new 0 0 107 53;" xml:space="preserve">
<style type="text/css">
	.st0{fill:#FFFFFF;}
</style>
<g>
	<path class="st0" d="M22.7,24.6l-0.4-0.8c-1,0.5-2.2,1-3.1,1h-0.6c-0.7,0-2.8-0.5-2.8-3.2v-0.8c0-1.2,0.6-3,3.4-3h2.7v-0.8
		c0-0.3-0.2-0.4-0.4-0.4h-4.2v-2.6h5.4c1.7,0,2.4,1.1,2.4,2.3v8.4L22.7,24.6L22.7,24.6z M21.9,19.8h-2.8c-0.2,0-0.4,0.1-0.4,0.4v1.1
		c0,0.4,0.3,0.9,0.9,0.9c0.8,0,1.6-0.2,2.3-0.4V19.8z"/>
	<path class="st0" d="M32.3,16.6c-0.6,0-1.8,0.2-2.8,0.3v7.6h-3.3V13.9h2.9l0.3,0.7c1-0.4,2.3-0.9,3.3-0.9v3L32.3,16.6L32.3,16.6z"
		/>
	<path class="st0" d="M37.9,24.8c-0.4,0-3.2-0.2-3.2-3.9v-4.3h-1.3v-2.8h1.3l0.4-1.7h2.8v1.7h3.2v2.8h-3.2v3.6c0,0.4,0,1.5,1.1,1.5
		c1,0,2.6-0.2,2.6-0.2v2.6C40.5,24.4,39.5,24.8,37.9,24.8z"/>
	<path class="st0" d="M56.3,24.6v-7.2c0-0.9-0.1-2.2-1.8-2.2c-0.9,0-2.9,0.6-3.3,0.7c0.1,0.4,0.2,1,0.2,1.6v7.1h-1.7v-7.4
		c0-0.9-0.3-1.9-1.8-1.9c-1,0-3.1,0.7-3.1,0.7v8.7H43V13.9h1.2l0.3,0.8c0,0,2.2-1,3.6-1c0.8,0,1.9,0.1,2.5,1.1
		c1.2-0.5,3.1-1.1,4.2-1.1c1.3,0,3.1,0.2,3.1,3.9v7.1C58,24.6,56.3,24.6,56.3,24.6z"/>
	<path class="st0" d="M62.4,24.8c-0.4,0-3.2-0.2-3.2-3.9v-3.4c0-1.9,1.1-3.7,3.7-3.7h1.5c2.7,0,3.4,1.7,3.4,3V19
		c0,0.7-0.4,1.1-0.9,1.1h-6v1.4c0,0.9,0.8,1.7,1.8,1.7c2.1,0,4.6-0.4,5.3-0.6V24C68,24,65.9,24.8,62.4,24.8z M66.3,16.9
		c0-0.9-0.5-1.6-1.6-1.6h-2.2c-1.1,0-1.6,0.7-1.6,1.6v1.9h5.4V16.9z"/>
	<path class="st0" d="M77.4,24.6l-0.3-0.7c-0.5,0.2-2.8,0.9-4.9,0.9c-0.7,0-3.1-0.2-3.1-3.9v-3.4c0-2.1,1.3-3.7,3.5-3.7h4.4v-3h1.7
		v13.7C78.8,24.6,77.4,24.6,77.4,24.6z M77.1,15.3h-4.7c-1.1,0-1.6,0.5-1.6,1.6v4.5c0,1.4,0.9,1.8,1.7,1.8c1.6,0,4.6-0.6,4.6-0.6
		V15.3z"/>
	<path class="st0" d="M80,12.6v-2h1.9v2C81.9,12.6,80,12.6,80,12.6z M80.1,24.6V13.9h1.6v10.7L80.1,24.6L80.1,24.6z"/>
	<path class="st0" d="M90.5,24.6l-0.4-0.8c-1,0.4-2.3,1-3.8,1h-0.6c-1,0-2.8-0.7-2.8-3.2v-0.6c0-1,0.4-3,3.4-3H90v-1.5
		c0-0.6-0.2-1.1-1.3-1.1h-4.4v-1.5h4.9c1.7,0,2.4,1.1,2.4,2.3v8.4C91.6,24.6,90.5,24.6,90.5,24.6z M90,19.3h-4.1
		c-0.9,0-1.4,0.7-1.4,1.1v1.2c0,1,0.8,1.6,1.6,1.6c1.3,0,3.2-0.5,3.9-0.7C90,22.5,90,19.3,90,19.3z"/>
	<path class="st0" d="M24.6,40.2c0,0-3,0.7-5.8,0.7c-0.4,0-2.8-0.2-2.8-3.4v-5c0-1.9,1.2-3.2,3.2-3.2h4.4v1.4h-4.9
		c-0.8,0-1.1,0.4-1.1,1.2v5.3c0,1.4,0.4,2.1,1.7,2.1c1.3,0,2.6-0.1,3.8-0.3v-4l1.5,0L24.6,40.2L24.6,40.2z"/>
	<path class="st0" d="M36.4,40.7l-0.9-2.2h-6.2l-0.9,2.2h-1.7l5-11.4h1.4l5,11.4H36.4z M32.4,30.9l-2.6,6.3H35L32.4,30.9z"/>
	<path class="st0" d="M40,40.7V29.4h1.5v9.9h5.3v1.5H40z"/>
	<path class="st0" d="M49.8,40.7V29.4h1.5v9.9h5.3v1.5H49.8z"/>
	<path class="st0" d="M59.5,40.7V29.4h7.4v1.4h-5.9v3.5h5.3v1.3h-5.3v3.7h6v1.5H59.5z"/>
	<path class="st0" d="M76.5,37.2l2.3,3.6H77l-2-3.2c-0.2,0-0.4,0-0.6,0h-2.9v3.2h-1.5V29.4h5c1.9,0,3.7,0.9,3.7,3.7v0.7
		C78.8,35.8,77.7,36.7,76.5,37.2z M77.3,32.8c0-1.7-1.3-2.1-2.3-2.1h-3.5v5.5h2.9c1.7,0,2.8-0.7,2.8-2.3L77.3,32.8L77.3,32.8z"/>
	<path class="st0" d="M86.5,36.9v3.9h-1.7v-3.9l-4.6-7.5H82l3.6,6.4l3.7-6.4h1.6L86.5,36.9z"/>
</g>
</svg>
