<?xml version="1.0" encoding="utf-8"?>
<!-- Generator: Adobe Illustrator 21.1.0, SVG Export Plug-In . SVG Version: 6.00 Build 0)  -->
<svg version="1.1" id="Layer_1" xmlns="http://www.w3.org/2000/svg" xmlns:xlink="http://www.w3.org/1999/xlink" x="0px" y="0px"
	 viewBox="0 0 93.5 17" style="enable-background:new 0 0 93.5 17;" xml:space="preserve">
<style type="text/css">
	.st0{fill:#C8CECE;}
</style>
<g>
	<path class="st0" d="M11.8,14.5c0,0-3.5,0.9-6.8,0.9c-0.4,0-3.3-0.2-3.3-4v-6c0-2.2,1.4-3.8,3.8-3.8h5.3v1.7H4.9
		C4,3.4,3.5,3.9,3.5,4.7V11c0,1.6,0.5,2.5,2,2.5c1.5,0,3.1-0.2,4.5-0.4V8.4l1.8,0L11.8,14.5L11.8,14.5z"/>
	<path class="st0" d="M25.9,15.1l-1.1-2.6h-7.4l-1.1,2.6h-2l6-13.5H22l6,13.5H25.9z M21.1,3.4L18,10.9h6.2L21.1,3.4z"/>
	<path class="st0" d="M30.2,15.1V1.6H32v11.7h6.4v1.7H30.2L30.2,15.1z"/>
	<path class="st0" d="M41.8,15.1V1.6h1.8v11.7H50v1.7H41.8L41.8,15.1z"/>
	<path class="st0" d="M53.4,15.1V1.6h8.8v1.7h-7v4.1h6.3V9h-6.3v4.4h7.2v1.7H53.4L53.4,15.1z"/>
	<path class="st0" d="M73.6,10.9l2.7,4.2h-2.1l-2.3-3.8c-0.3,0-0.5,0-0.7,0h-3.5v3.8H66V1.6h5.9c2.2,0,4.4,1.1,4.4,4.4v0.9
		C76.2,9.3,74.9,10.4,73.6,10.9z M74.5,5.7c0-2-1.6-2.5-2.7-2.5h-4.1v6.5h3.4c2,0,3.4-0.8,3.4-2.8L74.5,5.7L74.5,5.7z"/>
	<path class="st0" d="M85.4,10.5v4.6h-2v-4.6l-5.5-8.9h2.3l4.2,7.6l4.4-7.6h1.9L85.4,10.5z"/>
</g>
</svg>
