<?xml version="1.0" encoding="utf-8"?>
<!-- Generator: Adobe Illustrator 16.0.0, SVG Export Plug-In . SVG Version: 6.00 Build 0)  -->
<!DOCTYPE svg PUBLIC "-//W3C//DTD SVG 1.1//EN" "http://www.w3.org/Graphics/SVG/1.1/DTD/svg11.dtd">
<svg version="1.1" id="Layer_2" xmlns="http://www.w3.org/2000/svg" xmlns:xlink="http://www.w3.org/1999/xlink" x="0px" y="0px"
	 width="91px" height="133px" viewBox="0 0 91 133" enable-background="new 0 0 91 133" xml:space="preserve">
<g>
	<path fill="#404041" d="M9.157,113.723l-0.445-0.965c-1.174,0.625-2.559,1.227-3.604,1.227H4.351c-0.811,0-3.291-0.574-3.291-3.812
		v-0.992c0-1.41,0.679-3.553,4.048-3.553h3.161v-0.992c0-0.34-0.236-0.521-0.497-0.521H2.835v-3.031h6.4
		c2.009,0,2.794,1.279,2.794,2.768v9.873H9.157z M8.269,108.135H5.004c-0.209,0-0.523,0.105-0.523,0.495v1.307
		c0,0.522,0.366,1.017,1.019,1.017c0.942,0,1.882-0.26,2.77-0.494V108.135z"/>
	<path fill="#404041" d="M20.543,104.373c-0.756,0-2.115,0.184-3.29,0.366v8.983h-3.918v-12.641h3.422l0.392,0.783
		c1.228-0.496,2.743-1.045,3.891-1.045v3.553H20.543z"/>
	<path fill="#404041" d="M27.125,113.984c-0.497,0-3.787-0.262-3.787-4.57v-5.041h-1.515v-3.291h1.515l0.496-2.01h3.291v2.01h3.789
		v3.291h-3.789v4.283c0,0.496,0,1.777,1.254,1.777c1.123,0,3.057-0.262,3.057-0.262v3.055
		C30.209,113.541,29.007,113.984,27.125,113.984z"/>
	<path fill="#404041" d="M48.83,113.723v-8.438c0-1.067-0.131-2.609-2.142-2.609c-1.019,0-3.475,0.705-3.943,0.836
		c0.104,0.523,0.182,1.148,0.182,1.881v8.33h-1.984v-8.774c-0.053-1.019-0.339-2.272-2.142-2.272c-1.123,0-3.71,0.809-3.71,0.809
		v10.238h-1.958v-12.641h1.46l0.394,0.941c0,0,2.612-1.203,4.256-1.203c0.968,0,2.195,0.104,2.952,1.307
		c1.36-0.626,3.657-1.307,4.938-1.307c1.516,0,3.684,0.262,3.684,4.572v8.33H48.83z"/>
	<path fill="#404041" d="M56.038,113.984c-0.496,0-3.786-0.262-3.786-4.57v-4.021c0-2.272,1.279-4.311,4.309-4.311h1.751
		c3.212,0,4.048,1.959,4.048,3.553v2.532c0,0.812-0.47,1.255-1.045,1.255H54.21v1.645c0,1.02,0.914,2.038,2.142,2.038
		c2.456,0,5.406-0.47,6.244-0.732v1.673C62.596,113.045,60.087,113.984,56.038,113.984z M60.609,104.66
		c0-1.098-0.574-1.88-1.881-1.88H56.09c-1.305,0-1.88,0.782-1.88,1.88v2.221h6.399V104.66z"/>
	<path fill="#404041" d="M73.721,113.723l-0.365-0.781c-0.602,0.209-3.266,1.043-5.772,1.043c-0.861,0-3.685-0.262-3.685-4.57
		v-4.021c0-2.508,1.49-4.311,4.18-4.311h5.225v-3.527h1.959v16.168H73.721z M73.303,102.832h-5.563
		c-1.331,0-1.906,0.601-1.906,1.881v5.301c0,1.596,1.07,2.091,2.036,2.091c1.828,0,5.434-0.679,5.434-0.679V102.832z"/>
	<path fill="#404041" d="M76.725,99.568v-2.3h2.271v2.3H76.725z M76.881,113.723v-12.641h1.932v12.641H76.881z"/>
	<path fill="#404041" d="M89.156,113.723l-0.47-0.965c-1.122,0.443-2.767,1.227-4.52,1.227H83.41c-1.2,0-3.291-0.859-3.291-3.812
		v-0.732c0-1.123,0.471-3.551,4.048-3.551h4.362v-1.751c0-0.705-0.285-1.306-1.488-1.306h-5.145v-1.75h5.719
		c2.012,0,2.82,1.279,2.82,2.768v9.873H89.156z M88.529,107.506h-4.885c-1.069,0-1.619,0.837-1.619,1.333v1.438
		c0,1.201,0.889,1.904,1.907,1.904c1.54,0,3.735-0.6,4.597-0.861V107.506z"/>
	<path fill="#404041" d="M11.397,132.161c0,0-3.492,0.839-6.78,0.839c-0.431,0-3.287-0.227-3.287-3.968v-5.917
		c0-2.223,1.361-3.719,3.741-3.719h5.238v1.701H4.505c-0.886,0-1.337,0.521-1.337,1.361v6.232c0,1.609,0.521,2.495,2.017,2.495
		c1.475,0,3.039-0.159,4.421-0.364v-4.76l1.792-0.023V132.161z"/>
	<path fill="#404041" d="M25.39,132.773l-1.112-2.631h-7.324l-1.087,2.631h-1.972l5.94-13.377h1.699l5.941,13.377H25.39z
		 M20.582,121.188l-3.039,7.413h6.168L20.582,121.188z"/>
	<path fill="#404041" d="M29.632,132.773v-13.377h1.791v11.654h6.303v1.723H29.632z"/>
	<path fill="#404041" d="M41.131,132.773v-13.377h1.79v11.654h6.303v1.723H41.131z"/>
	<path fill="#404041" d="M52.627,132.773v-13.377h8.685v1.633h-6.893v4.08h6.236v1.564h-6.236v4.377h7.098v1.723H52.627z"/>
	<path fill="#404041" d="M72.629,128.578l2.697,4.195H73.24l-2.312-3.766c-0.273,0.024-0.521,0.024-0.704,0.024h-3.445v3.741h-1.744
		v-13.377h5.894c2.199,0,4.33,1.111,4.33,4.398v0.861C75.258,126.945,73.967,128.058,72.629,128.578z M73.512,123.455
		c0-2.041-1.564-2.447-2.652-2.447h-4.081v6.484h3.401c1.995,0,3.332-0.795,3.332-2.744V123.455z"/>
	<path fill="#404041" d="M84.33,128.217v4.557h-2.041v-4.557l-5.441-8.82h2.269l4.196,7.506l4.352-7.506h1.881L84.33,128.217z"/>
</g>
<path fill="#7D929B" d="M74.293,25.868c-3.135-1.795-6.356-3.475-9.611-5.049c0.086,1.662,0.16,3.347,0.207,5.058
	c-1.496-0.73-3.026-1.46-4.598-2.181c-0.045-1.702-0.105-3.367-0.182-5.007c-2.962-1.33-5.93-2.57-8.863-3.727
	c0.102,1.619,0.197,3.249,0.269,4.91c-1.489-0.609-3.013-1.217-4.571-1.821c-0.064-1.636-0.139-3.239-0.229-4.818
	c-3.031-1.123-6-2.152-8.858-3.091c0.104,1.551,0.208,3.113,0.292,4.701c-1.478-0.509-3-1.009-4.538-1.509
	c-0.072-1.566-0.162-3.105-0.254-4.626C30.2,7.732,27.223,6.874,24.5,6.127c0.112,1.492,0.219,2.99,0.306,4.512
	c-1.47-0.426-2.983-0.842-4.516-1.266c-0.075-1.5-0.164-2.968-0.26-4.428c-3.754-0.958-6.785-1.648-8.819-2.088
	c0.104,1.405,0.21,2.816,0.292,4.249c-0.958-0.234-1.941-0.468-2.925-0.7c0.127,2.954,0.181,5.948,0.17,8.945
	c1.059,0.255,2.111,0.509,3.133,0.771c0.038,1.66,0.061,3.346,0.053,5.07c-1.068-0.274-2.162-0.547-3.262-0.814
	c-0.076,2.972-0.207,5.925-0.378,8.825c1.169,0.29,2.323,0.582,3.458,0.876c-0.072,1.631-0.16,3.297-0.268,4.995
	c-1.155-0.301-2.333-0.604-3.526-0.903c-0.227,3.014-0.493,5.939-0.779,8.738c1.218,0.31,2.412,0.617,3.581,0.932
	c-0.152,1.607-0.338,3.245-0.538,4.923c-1.173-0.316-2.368-0.627-3.577-0.936c-0.362,3.133-0.739,6.043-1.104,8.659
	c1.189,0.303,2.363,0.611,3.511,0.921c-0.196,1.3-0.402,2.625-0.625,3.967c-1.133-0.31-2.288-0.613-3.46-0.914
	c-0.893,5.938-1.591,9.573-1.591,9.573c51.377,15.088,63.492,27.023,63.492,27.023C75.927,54.79,74.293,25.868,74.293,25.868z
	 M21.525,65.228c-1.54-0.493-3.103-0.981-4.719-1.465c0.22-1.34,0.429-2.663,0.63-3.96c0.848,0.255,2.397,0.724,4.721,1.473
	C21.957,62.575,21.751,63.889,21.525,65.228z M23.37,52.585c-1.542-0.483-3.122-0.969-4.735-1.447
	c0.211-1.675,0.396-3.317,0.568-4.929c1.615,0.481,3.185,0.966,4.724,1.452C23.762,49.272,23.576,50.907,23.37,52.585z
	 M24.69,38.848c-1.535-0.476-3.099-0.95-4.712-1.417c0.119-1.705,0.222-3.37,0.301-5.005c1.6,0.465,3.167,0.934,4.699,1.406
	C24.901,35.469,24.803,37.145,24.69,38.848z M20.559,23.507c0.019-1.723,0.022-3.417,0-5.077c1.567,0.439,3.105,0.881,4.604,1.328
	c0.031,1.668,0.044,3.368,0.035,5.101C23.692,24.405,22.134,23.958,20.559,23.507z M34.508,69.764
	c-1.522-0.577-3.072-1.155-4.673-1.728c0.229-1.325,0.444-2.638,0.646-3.93c1.594,0.577,3.162,1.158,4.679,1.744
	C34.954,67.135,34.747,68.438,34.508,69.764z M36.424,57.099c-1.529-0.577-3.094-1.146-4.701-1.713
	c0.215-1.669,0.411-3.306,0.586-4.914c1.618,0.574,3.179,1.153,4.708,1.736C36.835,53.806,36.638,55.44,36.424,57.099z
	 M37.841,43.302c-1.527-0.566-3.089-1.127-4.697-1.682c0.125-1.696,0.247-3.372,0.331-5c1.602,0.554,3.169,1.112,4.69,1.674
	C38.074,39.932,37.968,41.597,37.841,43.302z M33.807,27.607c0.027-1.737,0.034-3.437,0.028-5.103
	c1.571,0.526,3.113,1.055,4.612,1.593c0.021,1.674,0.021,3.377,0.009,5.113C36.942,28.675,35.384,28.139,33.807,27.607z
	 M47.34,75.08c-1.5-0.678-3.043-1.347-4.619-2.018c0.229-1.299,0.449-2.58,0.655-3.848c1.583,0.68,3.125,1.371,4.625,2.063
	C47.79,72.531,47.571,73.794,47.34,75.08z M49.359,62.412c-1.513-0.673-3.061-1.346-4.652-2.017
	c0.219-1.635,0.426-3.252,0.621-4.838c1.588,0.683,3.139,1.368,4.655,2.059C49.792,59.184,49.58,60.785,49.359,62.412z
	 M50.914,48.575c-1.52-0.668-3.074-1.335-4.674-1.993c0.146-1.688,0.262-3.335,0.365-4.952c1.596,0.666,3.154,1.34,4.674,2.013
	C51.173,45.254,51.051,46.896,50.914,48.575z M51.676,34.401c-1.518-0.647-3.057-1.293-4.652-1.93
	c0.045-1.726,0.071-3.418,0.079-5.076c1.578,0.638,3.125,1.277,4.624,1.93C51.73,30.984,51.71,32.677,51.676,34.401z M59.99,81.252
	c-1.486-0.771-3.002-1.551-4.553-2.324c0.236-1.25,0.455-2.486,0.67-3.704c1.543,0.79,3.055,1.585,4.555,2.386
	C60.445,78.809,60.221,80.021,59.99,81.252z M62.137,68.604c-1.494-0.783-3.028-1.557-4.59-2.335c0.231-1.594,0.441-3.163,0.648-4.7
	c1.561,0.793,3.094,1.591,4.601,2.394C62.594,65.477,62.374,67.03,62.137,68.604z M63.875,54.755
	c-1.52-0.776-3.064-1.551-4.645-2.324c0.157-1.642,0.297-3.247,0.424-4.83c1.574,0.788,3.123,1.58,4.635,2.375
	C64.168,51.539,64.031,53.13,63.875,54.755z M64.835,40.53c-1.509-0.764-3.052-1.524-4.644-2.282
	c0.062-1.689,0.117-3.353,0.145-4.976c1.58,0.763,3.117,1.536,4.636,2.307C64.947,37.2,64.897,38.848,64.835,40.53z"/>
</svg>
