<?xml version="1.0" encoding="utf-8"?>
<!-- Generator: Adobe Illustrator 16.0.0, SVG Export Plug-In . SVG Version: 6.00 Build 0)  -->
<!DOCTYPE svg PUBLIC "-//W3C//DTD SVG 1.1//EN" "http://www.w3.org/Graphics/SVG/1.1/DTD/svg11.dtd">
<svg version="1.1" id="Layer_1" xmlns="http://www.w3.org/2000/svg" xmlns:xlink="http://www.w3.org/1999/xlink" x="0px" y="0px"
	 width="91px" height="133px" viewBox="0 0 91 133" enable-background="new 0 0 91 133" xml:space="preserve">
<path fill="#414042" d="M73.736,24.586c-3.135-1.794-6.356-3.476-9.609-5.047c0.084,1.662,0.156,3.347,0.205,5.058
	c-1.498-0.729-3.022-1.46-4.595-2.182c-0.048-1.7-0.106-3.367-0.184-5.005c-2.963-1.329-5.932-2.571-8.862-3.729
	c0.102,1.621,0.198,3.249,0.266,4.91c-1.485-0.609-3.008-1.216-4.567-1.821c-0.066-1.637-0.14-3.237-0.229-4.818
	c-3.028-1.12-5.997-2.153-8.859-3.092c0.109,1.552,0.209,3.112,0.292,4.701c-1.478-0.509-3-1.009-4.537-1.509
	c-0.072-1.564-0.162-3.102-0.253-4.624c-3.158-0.976-6.134-1.834-8.856-2.581c0.112,1.493,0.219,2.989,0.309,4.514
	c-1.474-0.427-2.986-0.844-4.518-1.266c-0.072-1.502-0.165-2.97-0.261-4.429c-3.753-0.96-6.783-1.649-8.818-2.088
	c0.104,1.404,0.21,2.816,0.292,4.248C9.992,5.592,9.01,5.36,8.026,5.128c0.126,2.952,0.18,5.946,0.171,8.944
	c1.057,0.255,2.109,0.508,3.132,0.771c0.036,1.657,0.062,3.346,0.053,5.068c-1.066-0.273-2.16-0.545-3.262-0.813
	c-0.076,2.972-0.208,5.924-0.38,8.825c1.171,0.289,2.326,0.582,3.46,0.875c-0.072,1.632-0.161,3.298-0.269,4.996
	c-1.155-0.303-2.334-0.604-3.525-0.905c-0.228,3.014-0.494,5.94-0.779,8.741c1.218,0.308,2.412,0.614,3.582,0.931
	c-0.154,1.607-0.34,3.245-0.539,4.921c-1.175-0.314-2.37-0.626-3.578-0.936c-0.361,3.133-0.739,6.043-1.104,8.658
	c1.19,0.304,2.364,0.611,3.511,0.922c-0.193,1.301-0.4,2.626-0.625,3.969c-1.131-0.312-2.288-0.615-3.459-0.916
	c-0.894,5.937-1.593,9.575-1.593,9.575C54.196,83.84,66.309,95.777,66.309,95.777C75.37,53.509,73.736,24.586,73.736,24.586z
	 M20.973,63.944c-1.541-0.492-3.104-0.98-4.721-1.464c0.222-1.341,0.43-2.663,0.63-3.96c0.85,0.253,2.397,0.723,4.721,1.473
	C21.403,61.29,21.198,62.606,20.973,63.944z M22.816,51.304c-1.543-0.484-3.12-0.969-4.733-1.447
	c0.209-1.674,0.396-3.316,0.567-4.929c1.617,0.481,3.183,0.966,4.723,1.45C23.207,47.989,23.023,49.624,22.816,51.304z
	 M24.135,37.567c-1.535-0.478-3.099-0.951-4.71-1.417c0.118-1.705,0.224-3.369,0.302-5.006c1.598,0.464,3.167,0.935,4.698,1.407
	C24.348,34.188,24.25,35.861,24.135,37.567z M20.006,22.227c0.02-1.724,0.022-3.417,0-5.077c1.566,0.438,3.105,0.881,4.604,1.328
	c0.032,1.667,0.045,3.367,0.035,5.1C23.137,23.124,21.58,22.68,20.006,22.227z M33.956,68.482c-1.523-0.575-3.075-1.155-4.675-1.728
	c0.23-1.327,0.444-2.64,0.646-3.931c1.593,0.576,3.161,1.158,4.677,1.744C34.401,65.851,34.193,67.155,33.956,68.482z
	 M35.869,55.816c-1.529-0.575-3.096-1.146-4.7-1.713c0.215-1.668,0.409-3.304,0.587-4.913c1.618,0.574,3.178,1.155,4.704,1.737
	C36.281,52.522,36.083,54.159,35.869,55.816z M37.287,42.019c-1.529-0.563-3.088-1.125-4.698-1.681
	c0.127-1.696,0.249-3.372,0.331-4.999c1.601,0.55,3.171,1.113,4.69,1.674C37.52,38.648,37.413,40.314,37.287,42.019z M33.252,26.326
	c0.029-1.736,0.036-3.435,0.03-5.102c1.57,0.524,3.113,1.053,4.611,1.593c0.021,1.673,0.021,3.375,0.011,5.114
	C36.388,27.395,34.828,26.859,33.252,26.326z M46.787,73.795c-1.5-0.68-3.047-1.346-4.621-2.016
	c0.229-1.301,0.448-2.582,0.654-3.848c1.583,0.68,3.125,1.367,4.623,2.062C47.236,71.247,47.017,72.51,46.787,73.795z
	 M48.806,61.127c-1.516-0.673-3.064-1.345-4.652-2.015c0.218-1.637,0.426-3.253,0.62-4.836c1.588,0.681,3.139,1.367,4.654,2.058
	C49.236,57.9,49.023,59.501,48.806,61.127z M50.36,47.294c-1.521-0.67-3.075-1.337-4.675-1.993c0.146-1.688,0.262-3.335,0.364-4.95
	c1.596,0.662,3.155,1.338,4.673,2.014C50.617,43.973,50.498,45.614,50.36,47.294z M51.121,33.122
	c-1.517-0.649-3.057-1.295-4.654-1.933c0.05-1.722,0.072-3.416,0.082-5.074c1.578,0.635,3.124,1.276,4.623,1.929
	C51.173,29.703,51.155,31.396,51.121,33.122z M59.435,79.97c-1.485-0.773-3.001-1.552-4.552-2.324
	c0.235-1.252,0.452-2.487,0.666-3.705c1.545,0.789,3.059,1.586,4.56,2.384C59.891,77.525,59.666,78.736,59.435,79.97z M61.58,67.32
	c-1.494-0.782-3.027-1.555-4.584-2.334c0.229-1.594,0.436-3.16,0.644-4.699c1.561,0.791,3.096,1.592,4.602,2.394
	C62.039,64.194,61.818,65.748,61.58,67.32z M63.316,53.474c-1.517-0.779-3.064-1.551-4.642-2.326
	c0.155-1.641,0.298-3.246,0.425-4.828c1.573,0.787,3.121,1.581,4.637,2.375C63.615,50.256,63.477,51.847,63.316,53.474z
	 M64.279,39.249c-1.509-0.763-3.053-1.524-4.643-2.282c0.062-1.688,0.114-3.352,0.144-4.976c1.579,0.763,3.117,1.536,4.636,2.308
	C64.393,35.916,64.341,37.568,64.279,39.249z"/>
<g>
	<path fill="#5E7075" d="M8.446,111.945l-0.444-0.969c-1.176,0.627-2.56,1.229-3.605,1.229H3.639c-0.811,0-3.291-0.572-3.291-3.814
		v-0.99c0-1.41,0.68-3.553,4.047-3.553h3.162v-0.992c0-0.338-0.236-0.521-0.496-0.521H2.125v-3.028h6.398
		c2.01,0,2.795,1.276,2.795,2.771v9.87H8.446V111.945z M7.558,106.355H4.292c-0.209,0-0.523,0.104-0.523,0.494v1.308
		c0,0.522,0.369,1.02,1.02,1.02c0.942,0,1.882-0.262,2.771-0.496V106.355z"/>
	<path fill="#5E7075" d="M19.831,102.592c-0.755,0-2.115,0.185-3.289,0.367v8.984h-3.917v-12.64h3.421l0.393,0.78
		c1.229-0.494,2.741-1.043,3.891-1.043v3.551H19.831z"/>
	<path fill="#5E7075" d="M26.412,112.206c-0.496,0-3.785-0.261-3.785-4.57v-5.041h-1.515v-3.289h1.515l0.496-2.012h3.289v2.012H30.2
		v3.289h-3.788v4.285c0,0.494,0,1.774,1.255,1.774c1.123,0,3.057-0.264,3.057-0.264v3.057
		C29.497,111.76,28.294,112.206,26.412,112.206z"/>
	<path fill="#5E7075" d="M48.115,111.945v-8.438c0-1.069-0.131-2.608-2.14-2.608c-1.02,0-3.474,0.703-3.943,0.834
		c0.105,0.521,0.181,1.149,0.181,1.879v8.334H40.23v-8.774c-0.056-1.021-0.341-2.271-2.144-2.271c-1.124,0-3.709,0.807-3.709,0.807
		v10.24H32.42V99.304h1.463l0.393,0.938c0,0,2.612-1.201,4.256-1.201c0.968,0,2.195,0.104,2.952,1.306
		c1.355-0.625,3.654-1.306,4.938-1.306c1.515,0,3.68,0.263,3.68,4.568v8.334L48.115,111.945L48.115,111.945z"/>
	<path fill="#5E7075" d="M55.32,112.206c-0.492,0-3.783-0.261-3.783-4.57v-4.023c0-2.27,1.279-4.307,4.31-4.307H57.6
		c3.209,0,4.043,1.955,4.043,3.551v2.533c0,0.812-0.47,1.254-1.043,1.254h-7.104v1.645c0,1.021,0.913,2.039,2.145,2.039
		c2.455,0,5.403-0.473,6.241-0.731v1.674C61.881,111.267,59.373,112.206,55.32,112.206z M59.893,102.881
		c0-1.1-0.571-1.881-1.877-1.881h-2.639c-1.306,0-1.883,0.781-1.883,1.881v2.22h6.397L59.893,102.881L59.893,102.881z"/>
	<path fill="#5E7075" d="M73.008,111.945l-0.366-0.784c-0.603,0.209-3.267,1.045-5.772,1.045c-0.862,0-3.684-0.261-3.684-4.57
		v-4.023c0-2.508,1.488-4.307,4.182-4.307h5.222v-3.527h1.957v16.168L73.008,111.945L73.008,111.945z M72.588,101.054h-5.561
		c-1.334,0-1.908,0.6-1.908,1.879v5.303c0,1.593,1.07,2.091,2.036,2.091c1.828,0,5.433-0.683,5.433-0.683V101.054L72.588,101.054z"
		/>
	<path fill="#5E7075" d="M76.01,97.788v-2.297h2.271v2.297H76.01z M76.166,111.945V99.304H78.1v12.641H76.166z"/>
	<path fill="#5E7075" d="M88.441,111.945l-0.469-0.969c-1.123,0.444-2.771,1.229-4.521,1.229h-0.756
		c-1.201,0-3.292-0.861-3.292-3.814v-0.729c0-1.125,0.469-3.556,4.048-3.556h4.36v-1.748c0-0.705-0.285-1.305-1.489-1.305h-5.143
		v-1.75h5.72c2.01,0,2.82,1.276,2.82,2.771v9.87H88.441z M87.812,105.728H82.93c-1.073,0-1.62,0.834-1.62,1.332v1.437
		c0,1.2,0.889,1.907,1.905,1.907c1.539,0,3.736-0.603,4.597-0.862V105.728L87.812,105.728z"/>
	<path fill="#414042" d="M6.469,131.217c-2.858,0-5.964-0.452-5.964-0.452v-1.656c0,0,3.175,0.433,5.692,0.433
		c0.43,0,1.79,0,1.79-1.494v-2.971H2.685c-1.543,0-1.951-0.683-1.951-1.746v-2.879c0-1.748,0.884-2.836,3.288-2.836h4.85v1.633
		H3.611c-1.04,0-1.111,0.703-1.111,1.135v3.059h5.283c1.496,0,1.974,0.727,1.974,1.746v2.518
		C9.757,130.995,6.899,131.217,6.469,131.217z"/>
	<path fill="#414042" d="M22.434,119.293v11.699h-1.861v-11.699h-3.784v-1.68h9.499v1.68H22.434z"/>
	<path fill="#414042" d="M44.293,127.25c0,0,0,3.742-3.743,3.742h-3.918c-0.435,0-3.517-0.182-3.517-3.924v-9.455h1.838v9.207
		c0,1.404,0.723,2.426,2.222,2.426h3.942c1.043,0,1.338-0.771,1.338-1.338v-10.295h1.837L44.293,127.25L44.293,127.25z"/>
	<path fill="#414042" d="M57.559,130.995h-5.782v-13.379h5.782c3.037,0,5.26,1.52,5.26,5.19v3.403
		C62.818,128.363,61.684,130.995,57.559,130.995z M61.074,122.715c0-2.584-1.724-3.489-3.399-3.489h-4.083v10.063h4.626
		c2.243,0,2.856-1.562,2.856-2.697V122.715z"/>
	<path fill="#414042" d="M70.076,130.995v-13.379h1.816v13.379H70.076z"/>
	<path fill="#414042" d="M86.698,130.995h-4.376c-0.434,0-3.514-0.183-3.514-3.925v-5.713c0,0,0-3.741,3.739-3.741h4.354
		c0.431,0,3.512,0.204,3.512,3.946v5.688C90.414,127.25,90.439,130.995,86.698,130.995z M88.671,121.674
		c0-1.45-0.905-2.448-2.222-2.448h-4.561c-0.812,0-1.336,0.521-1.336,1.358v6.281c0,1.406,0.728,2.424,2.223,2.424h4.558
		c1.042,0,1.338-0.77,1.338-1.336V121.674z"/>
</g>
</svg>
