<?xml version="1.0" encoding="utf-8"?>
<!-- Generator: Adobe Illustrator 21.1.0, SVG Export Plug-In . SVG Version: 6.00 Build 0)  -->
<svg version="1.1" id="Layer_1" xmlns="http://www.w3.org/2000/svg" xmlns:xlink="http://www.w3.org/1999/xlink" x="0px" y="0px"
	 viewBox="0 0 93.5 17" style="enable-background:new 0 0 93.5 17;" xml:space="preserve">
<style type="text/css">
	.st0{fill:#8499A0;}
</style>
<g>
	<path class="st0" d="M8.3,15.4c-2.8,0-5.9-0.5-5.9-0.5v-1.6c0,0,3.1,0.4,5.6,0.4c0.4,0,1.7,0,1.7-1.5V9.4H4.5
		C3,9.4,2.6,8.7,2.6,7.7V4.8c0-1.7,0.9-2.8,3.2-2.8h4.8v1.6H5.4c-1,0-1.1,0.7-1.1,1.1v3h5.2c1.5,0,1.9,0.7,1.9,1.7V12
		C11.5,15.2,8.7,15.4,8.3,15.4z"/>
	<path class="st0" d="M23.9,3.7v11.5h-1.8V3.7h-3.7V2.1h9.3v1.7H23.9z"/>
	<path class="st0" d="M45.4,11.5c0,0,0,3.7-3.7,3.7h-3.9c-0.4,0-3.5-0.2-3.5-3.9V2.1h1.8v9c0,1.4,0.7,2.4,2.2,2.4h3.9
		c1,0,1.3-0.8,1.3-1.3V2.1h1.8V11.5z"/>
	<path class="st0" d="M58.5,15.2h-5.7V2.1h5.7c3,0,5.2,1.5,5.2,5.1v3.3C63.6,12.6,62.5,15.2,58.5,15.2z M61.9,7.1
		c0-2.5-1.7-3.4-3.3-3.4h-4v9.9h4.6c2.2,0,2.8-1.6,2.8-2.6V7.1z"/>
	<path class="st0" d="M70.8,15.2V2.1h1.8v13.2C72.5,15.2,70.8,15.2,70.8,15.2z"/>
	<path class="st0" d="M87.1,15.2h-4.3c-0.4,0-3.5-0.2-3.5-3.9V5.7c0,0,0-3.7,3.7-3.7h4.3c0.4,0,3.5,0.2,3.5,3.9v5.6
		C90.8,11.5,90.8,15.2,87.1,15.2z M89,6.1c0-1.4-0.9-2.4-2.2-2.4h-4.5C81.6,3.6,81,4.2,81,5v6.2c0,1.4,0.7,2.4,2.2,2.4h4.5
		c1,0,1.3-0.8,1.3-1.3V6.1z"/>
</g>
</svg>
