<?xml version="1.0" encoding="utf-8"?>
<!-- Generator: Adobe Illustrator 21.1.0, SVG Export Plug-In . SVG Version: 6.00 Build 0)  -->
<svg version="1.1" id="Layer_1" xmlns="http://www.w3.org/2000/svg" xmlns:xlink="http://www.w3.org/1999/xlink" x="0px" y="0px"
	 viewBox="0 0 107 53" style="enable-background:new 0 0 107 53;" xml:space="preserve">
<style type="text/css">
	.st0{fill:#5E7075;}
	.st1{fill:#414042;}
</style>
<g>
	<path class="st0" d="M22.2,26.2l-0.4-0.8c-1,0.5-2.2,1-3,1h-0.6c-0.7,0-2.8-0.5-2.8-3.2v-0.8c0-1.2,0.6-3,3.4-3h2.7v-0.8
		c0-0.3-0.2-0.4-0.4-0.4h-4.2v-2.6h5.4c1.7,0,2.4,1.1,2.4,2.3v8.3L22.2,26.2L22.2,26.2z M21.5,21.4h-2.8c-0.2,0-0.4,0.1-0.4,0.4V23
		c0,0.4,0.3,0.9,0.9,0.9c0.8,0,1.6-0.2,2.3-0.4V21.4z"/>
	<path class="st0" d="M31.8,18.3c-0.6,0-1.8,0.2-2.8,0.3v7.6h-3.3V15.5h2.9l0.3,0.7c1-0.4,2.3-0.9,3.3-0.9v3H31.8z"/>
	<path class="st0" d="M37.4,26.4c-0.4,0-3.2-0.2-3.2-3.9v-4.3h-1.3v-2.8h1.3l0.4-1.7h2.8v1.7h3.2v2.8h-3.2v3.6c0,0.4,0,1.5,1.1,1.5
		c0.9,0,2.6-0.2,2.6-0.2v2.6C40,26,39,26.4,37.4,26.4z"/>
	<path class="st0" d="M55.7,26.2V19c0-0.9-0.1-2.2-1.8-2.2c-0.9,0-2.9,0.6-3.3,0.7c0.1,0.4,0.2,1,0.2,1.6v7h-1.7v-7.4
		c0-0.9-0.3-1.9-1.8-1.9c-0.9,0-3.1,0.7-3.1,0.7v8.6h-1.7V15.5h1.2l0.3,0.8c0,0,2.2-1,3.6-1c0.8,0,1.9,0.1,2.5,1.1
		c1.1-0.5,3.1-1.1,4.2-1.1c1.3,0,3.1,0.2,3.1,3.9v7L55.7,26.2L55.7,26.2z"/>
	<path class="st0" d="M61.8,26.4c-0.4,0-3.2-0.2-3.2-3.9v-3.4c0-1.9,1.1-3.6,3.6-3.6h1.5c2.7,0,3.4,1.7,3.4,3v2.1
		c0,0.7-0.4,1.1-0.9,1.1h-6v1.4c0,0.9,0.8,1.7,1.8,1.7c2.1,0,4.6-0.4,5.3-0.6v1.4C67.4,25.6,65.2,26.4,61.8,26.4z M65.7,18.5
		c0-0.9-0.5-1.6-1.6-1.6h-2.2c-1.1,0-1.6,0.7-1.6,1.6v1.9h5.4V18.5z"/>
	<path class="st0" d="M76.8,26.2l-0.3-0.7c-0.5,0.2-2.8,0.9-4.9,0.9c-0.7,0-3.1-0.2-3.1-3.9v-3.4c0-2.1,1.3-3.6,3.5-3.6h4.4v-3h1.7
		v13.7H76.8z M76.4,17h-4.7c-1.1,0-1.6,0.5-1.6,1.6V23c0,1.3,0.9,1.8,1.7,1.8c1.5,0,4.6-0.6,4.6-0.6V17z"/>
	<path class="st0" d="M79.3,14.2v-1.9h1.9v1.9H79.3z M79.4,26.2V15.5h1.6v10.7L79.4,26.2L79.4,26.2z"/>
	<path class="st0" d="M89.8,26.2l-0.4-0.8c-0.9,0.4-2.3,1-3.8,1h-0.6c-1,0-2.8-0.7-2.8-3.2v-0.6c0-0.9,0.4-3,3.4-3h3.7v-1.5
		c0-0.6-0.2-1.1-1.3-1.1h-4.3v-1.5h4.8c1.7,0,2.4,1.1,2.4,2.3v8.3L89.8,26.2L89.8,26.2z M89.3,20.9h-4.1c-0.9,0-1.4,0.7-1.4,1.1v1.2
		c0,1,0.8,1.6,1.6,1.6c1.3,0,3.2-0.5,3.9-0.7V20.9z"/>
	<path class="st1" d="M20.5,42.4c-2.4,0-5-0.4-5-0.4v-1.4c0,0,2.7,0.4,4.8,0.4c0.4,0,1.5,0,1.5-1.3v-2.5h-4.5
		c-1.3,0-1.6-0.6-1.6-1.5v-2.4c0-1.5,0.7-2.4,2.8-2.4h4.1v1.4h-4.4c-0.9,0-0.9,0.6-0.9,1v2.6h4.5c1.3,0,1.7,0.6,1.7,1.5v2.1
		C23.3,42.3,20.9,42.4,20.5,42.4z"/>
	<path class="st1" d="M34,32.4v9.9h-1.6v-9.9h-3.2V31h8v1.4H34z"/>
	<path class="st1" d="M52.5,39.1c0,0,0,3.2-3.2,3.2H46c-0.4,0-3-0.2-3-3.3v-8h1.6v7.8c0,1.2,0.6,2,1.9,2h3.3c0.9,0,1.1-0.7,1.1-1.1
		V31h1.6C52.5,31,52.5,39.1,52.5,39.1z"/>
	<path class="st1" d="M63.7,42.3h-4.9V31h4.9c2.6,0,4.4,1.3,4.4,4.4v2.9C68.1,40,67.2,42.3,63.7,42.3z M66.7,35.3
		c0-2.2-1.5-2.9-2.9-2.9h-3.4v8.5h3.9c1.9,0,2.4-1.3,2.4-2.3V35.3z"/>
	<path class="st1" d="M74.3,42.3V31h1.5v11.3C75.8,42.3,74.3,42.3,74.3,42.3z"/>
	<path class="st1" d="M88.3,42.3h-3.7c-0.4,0-3-0.2-3-3.3v-4.8c0,0,0-3.2,3.2-3.2h3.7c0.4,0,3,0.2,3,3.3v4.8
		C91.5,39.1,91.5,42.3,88.3,42.3z M90,34.4c0-1.2-0.8-2.1-1.9-2.1h-3.9c-0.7,0-1.1,0.4-1.1,1.2v5.3c0,1.2,0.6,2,1.9,2h3.8
		c0.9,0,1.1-0.7,1.1-1.1V34.4z"/>
</g>
</svg>
