<?xml version="1.0" encoding="utf-8"?>
<!-- Generator: Adobe Illustrator 21.1.0, SVG Export Plug-In . SVG Version: 6.00 Build 0)  -->
<svg version="1.1" id="Layer_1" xmlns="http://www.w3.org/2000/svg" xmlns:xlink="http://www.w3.org/1999/xlink" x="0px" y="0px"
	 viewBox="0 0 113.9 151.1" style="enable-background:new 0 0 113.9 151.1;" xml:space="preserve">
<style type="text/css">
	.st0{fill:#98B0B7;}
</style>
<path class="st0" d="M113.8,36.9c-5-2.9-10.2-5.6-15.4-8.1c0.1,2.7,0.3,5.4,0.3,8.1c-2.4-1.2-4.9-2.3-7.4-3.5
	c-0.1-2.7-0.2-5.4-0.3-8c-4.8-2.1-9.5-4.1-14.2-6c0.2,2.6,0.3,5.2,0.4,7.9c-2.4-1-4.8-2-7.3-2.9c-0.1-2.6-0.2-5.2-0.4-7.7
	c-4.9-1.8-9.6-3.5-14.2-5c0.2,2.5,0.3,5,0.5,7.5c-2.4-0.8-4.8-1.6-7.3-2.4c-0.1-2.5-0.3-5-0.4-7.4C43,7.8,38.3,6.4,33.9,5.2
	c0.2,2.4,0.4,4.8,0.5,7.2c-2.4-0.7-4.8-1.4-7.2-2C27,8,26.9,5.7,26.7,3.4c-6-1.5-10.9-2.6-14.1-3.4c0.2,2.3,0.3,4.5,0.5,6.8
	c-1.5-0.4-3.1-0.8-4.7-1.1c0.2,4.7,0.3,9.5,0.3,14.3c1.7,0.4,3.4,0.8,5,1.2c0.1,2.7,0.1,5.4,0.1,8.1c-1.7-0.4-3.5-0.9-5.2-1.3
	c-0.1,4.8-0.3,9.5-0.6,14.2c1.9,0.5,3.7,0.9,5.5,1.4c-0.1,2.6-0.3,5.3-0.4,8c-1.9-0.5-3.7-1-5.7-1.4c-0.4,4.8-0.8,9.5-1.2,14
	c1.9,0.5,3.9,1,5.7,1.5c-0.2,2.6-0.5,5.2-0.9,7.9c-1.9-0.5-3.8-1-5.7-1.5c-0.6,5-1.2,9.7-1.8,13.9c1.9,0.5,3.8,1,5.6,1.5
	c-0.3,2.1-0.6,4.2-1,6.4c-1.8-0.5-3.7-1-5.6-1.5C1.1,101.9,0,107.8,0,107.8c82.4,24.2,101.8,43.4,101.8,43.4
	C116.4,83.3,113.8,36.9,113.8,36.9z M29.1,100c-2.5-0.8-5-1.6-7.6-2.4c0.4-2.1,0.7-4.3,1-6.4c1.4,0.4,3.8,1.2,7.6,2.4
	C29.8,95.8,29.5,97.9,29.1,100z M32.1,79.8c-2.5-0.8-5-1.6-7.6-2.3c0.3-2.7,0.6-5.3,0.9-7.9c2.6,0.8,5.1,1.5,7.6,2.3
	C32.7,74.5,32.4,77.1,32.1,79.8z M34.2,57.7c-2.5-0.8-5-1.5-7.6-2.3c0.2-2.7,0.4-5.4,0.5-8c2.6,0.7,5.1,1.5,7.5,2.3
	C34.5,52.3,34.4,55,34.2,57.7z M27.6,33.1c0-2.8,0-5.5,0-8.1c2.5,0.7,5,1.4,7.4,2.1c0.1,2.7,0.1,5.4,0.1,8.2
	C32.6,34.6,30.1,33.8,27.6,33.1z M49.9,107.3c-2.4-0.9-4.9-1.9-7.5-2.8c0.4-2.1,0.7-4.2,1-6.3c2.6,0.9,5.1,1.9,7.5,2.8
	C50.7,103.1,50.3,105.2,49.9,107.3z M53,87c-2.5-0.9-5-1.8-7.5-2.7c0.3-2.7,0.7-5.3,0.9-7.9c2.6,0.9,5.1,1.9,7.5,2.8
	C53.7,81.7,53.4,84.3,53,87z M55.3,64.9c-2.4-0.9-5-1.8-7.5-2.7c0.2-2.7,0.4-5.4,0.5-8c2.6,0.9,5.1,1.8,7.5,2.7
	C55.7,59.5,55.5,62.1,55.3,64.9z M48.8,39.7c0-2.8,0.1-5.5,0-8.2c2.5,0.8,5,1.7,7.4,2.6c0,2.7,0,5.4,0,8.2
	C53.8,41.4,51.3,40.6,48.8,39.7z M70.5,115.9c-2.4-1.1-4.9-2.2-7.4-3.2c0.4-2.1,0.7-4.1,1.1-6.2c2.5,1.1,5,2.2,7.4,3.3
	C71.2,111.8,70.9,113.8,70.5,115.9z M73.8,95.5c-2.4-1.1-4.9-2.2-7.5-3.2c0.4-2.6,0.7-5.2,1-7.8c2.5,1.1,5,2.2,7.5,3.3
	C74.5,90.4,74.1,92.9,73.8,95.5z M76.3,73.3c-2.4-1.1-4.9-2.1-7.5-3.2c0.2-2.7,0.4-5.3,0.6-7.9c2.6,1.1,5.1,2.1,7.5,3.2
	C76.7,68,76.5,70.6,76.3,73.3z M77.5,50.6c-2.4-1-4.9-2.1-7.5-3.1c0.1-2.8,0.1-5.5,0.1-8.1c2.5,1,5,2,7.4,3.1
	C77.6,45.1,77.5,47.8,77.5,50.6z M90.8,125.8c-2.4-1.2-4.8-2.5-7.3-3.7c0.4-2,0.7-4,1.1-5.9c2.5,1.3,4.9,2.5,7.3,3.8
	C91.5,121.8,91.2,123.8,90.8,125.8z M94.3,105.5c-2.4-1.3-4.9-2.5-7.4-3.7c0.4-2.6,0.7-5.1,1-7.5c2.5,1.3,5,2.6,7.4,3.8
	C95,100.5,94.6,102.9,94.3,105.5z M97,83.2c-2.4-1.2-4.9-2.5-7.5-3.7c0.3-2.6,0.5-5.2,0.7-7.7c2.5,1.3,5,2.5,7.4,3.8
	C97.5,78.1,97.3,80.6,97,83.2z M98.6,60.4c-2.4-1.2-4.9-2.4-7.5-3.7c0.1-2.7,0.2-5.4,0.2-8c2.5,1.2,5,2.5,7.4,3.7
	C98.8,55.1,98.7,57.7,98.6,60.4z"/>
</svg>
